<?xml version="1.0" encoding="UTF-8"?>
<svg version="1.1" xmlns="http://www.w3.org/2000/svg" width="400" height="400">
<path d="M0 0 C132 0 264 0 400 0 C400 132 400 264 400 400 C268 400 136 400 0 400 C0 268 0 136 0 0 Z " fill="#F7F7F8" transform="translate(0,0)"/>
<path d="M0 0 C0.92748183 -0.00384115 1.85496365 -0.00768229 2.81055099 -0.01163983 C3.83630695 -0.01077335 4.86206292 -0.00990687 5.9189024 -0.00901413 C7.00330835 -0.01198525 8.08771429 -0.01495637 9.20498103 -0.01801753 C12.86310308 -0.02673573 16.52119252 -0.02821541 20.17932415 -0.02970505 C22.79216361 -0.034331 25.4050024 -0.03935536 28.01784039 -0.04475021 C35.13353151 -0.05834479 42.249217 -0.06436005 49.36491895 -0.06876087 C53.80632252 -0.0715215 58.24772391 -0.07575853 62.68912601 -0.08026505 C74.98112667 -0.09245937 87.27312557 -0.10275824 99.56513214 -0.10614014 C100.74571695 -0.10646949 100.74571695 -0.10646949 101.95015196 -0.10680549 C102.73911463 -0.10702377 103.5280773 -0.10724204 104.34094793 -0.10746694 C105.93974261 -0.10791041 107.53853728 -0.10835697 109.13733196 -0.10880661 C109.93039294 -0.10902804 110.72345391 -0.10924947 111.54054704 -0.10947761 C124.39252285 -0.11342606 137.24444198 -0.13088078 150.09639589 -0.15416613 C163.28486034 -0.17786869 176.47329634 -0.19034149 189.66178244 -0.19150805 C197.06922471 -0.19242546 204.47659313 -0.19819401 211.88401508 -0.21632767 C218.85002424 -0.23332035 225.81589093 -0.23498946 232.78191471 -0.22618866 C235.34217358 -0.22541547 237.90243983 -0.2297979 240.46267986 -0.23964691 C243.95110496 -0.25228209 247.43902634 -0.24653524 250.92744732 -0.23606491 C251.94651112 -0.24412132 252.96557492 -0.25217772 254.01551944 -0.26047826 C262.69745911 -0.19930824 262.69745911 -0.19930824 266.61365032 3.13142776 C268.76007308 6.35106191 268.86543454 7.19482221 268.87434673 10.90031815 C268.88143154 11.88167236 268.88851635 12.86302658 268.89581585 13.8741188 C268.89333843 14.94951416 268.89086102 16.02490952 268.88830853 17.13289261 C268.89597492 18.83325417 268.89597492 18.83325417 268.9037962 20.56796646 C268.91772945 24.32615267 268.91673248 28.08415625 268.91443157 31.84236526 C268.91831666 34.44926904 268.92265094 37.05617218 268.9274168 39.66307449 C268.93563317 45.13235983 268.93471978 50.60159353 268.92932415 56.07088089 C268.92328662 62.38920907 268.93558884 68.70731444 268.95689422 75.02560461 C268.97664432 81.10661548 268.97968267 87.18752228 268.9761591 93.26856232 C268.97667311 95.85456363 268.98192585 98.44056844 268.99197102 101.02655029 C269.00428861 104.64159998 268.9975711 108.25613263 268.98596478 111.87117386 C268.99360851 112.94252075 269.00125225 114.01386765 269.00912762 115.1176796 C268.94296805 124.42708629 268.94296805 124.42708629 265.61365032 128.13142776 C262.63920479 129.93798213 260.42389736 130.383128 256.96558762 130.39148998 C256.0306403 130.39855557 255.09569298 130.40562117 254.13241392 130.41290087 C253.10859269 130.41048578 252.08477146 130.4080707 251.02992535 130.40558243 C249.39462782 130.41343745 249.39462782 130.41343745 247.72629398 130.42145115 C244.06053552 130.43649463 240.3949161 130.43715726 236.72912884 130.43782425 C234.10614059 130.4454427 231.48315458 130.45386965 228.86017132 130.46304703 C221.72600308 130.48589459 214.59186459 130.49381703 207.45766473 130.49887347 C203.00385135 130.50213009 198.55004662 130.50865227 194.09623814 130.51587486 C181.76641302 130.53543871 169.43659594 130.55184477 157.1067543 130.5547514 C156.31780039 130.55493897 155.52884648 130.55512654 154.71598488 130.55531979 C153.11657679 130.55568604 151.5171687 130.55604974 149.91776062 130.5564109 C149.12380803 130.55659371 148.32985544 130.55677652 147.51184368 130.55696487 C146.7169231 130.55714542 145.92200251 130.55732597 145.10299342 130.55751199 C132.21553012 130.56105547 119.32823372 130.58808954 106.44082833 130.62546276 C93.21161341 130.66352057 79.98248138 130.68290868 66.75321048 130.68321091 C59.32450717 130.68379597 51.89600307 130.69231948 44.46735096 130.72120857 C37.48317784 130.74824429 30.49940596 130.74964891 23.51520061 130.73355293 C20.94848491 130.73173075 18.38174696 130.73849787 15.81507969 130.75437164 C12.31769868 130.77468697 8.8217203 130.76436446 5.32435894 130.7461586 C4.30276843 130.75935857 3.28117792 130.77255854 2.22863013 130.7861585 C-2.50570719 130.72965964 -4.65744333 130.69763419 -8.49326897 127.71800709 C-10.99377671 124.30147996 -11.51284231 122.68751404 -11.54024982 118.52748489 C-11.54885029 117.55736465 -11.55745075 116.58724442 -11.56631184 115.58772659 C-11.57057178 114.51965775 -11.57483173 113.4515889 -11.57922077 112.35115433 C-11.58739826 111.22908585 -11.59557575 110.10701736 -11.60400105 108.95094681 C-11.62888495 105.22465428 -11.64537867 101.49839992 -11.65978718 97.77205276 C-11.66511086 96.50159859 -11.67043453 95.23114441 -11.67591953 93.92219162 C-11.6971555 88.58295734 -11.71628507 83.24373647 -11.72754192 77.90447235 C-11.74377347 70.25617784 -11.7769295 62.60839199 -11.83394277 54.96028924 C-11.87734499 48.93214669 -11.8932903 42.90423532 -11.89967442 36.87592697 C-11.90639954 34.31304936 -11.92165401 31.75017952 -11.94556522 29.18740463 C-11.97711834 25.60096821 -11.97726748 22.01581762 -11.96984577 18.42927933 C-11.99445377 16.83932144 -11.99445377 16.83932144 -12.01955891 15.21724319 C-11.95144223 7.18095973 -11.95144223 7.18095973 -8.97488117 3.48781204 C-5.68850217 0.4961653 -4.30475064 0.00666919 0 0 Z " fill="#104E9D" transform="translate(71.38634967803955,209.86857223510742)"/>
<path d="M0 0 C16.5 0 33 0 50 0 C50 132 50 264 50 400 C33.5 400 17 400 0 400 C0 268 0 136 0 0 Z " fill="#FFFFFF" transform="translate(350,0)"/>
<path d="M0 0 C16.5 0 33 0 50 0 C50 132 50 264 50 400 C33.5 400 17 400 0 400 C0 268 0 136 0 0 Z " fill="#FFFFFF" transform="translate(0,0)"/>
<path d="M0 0 C1.39214779 -0.00483667 1.39214779 -0.00483667 2.81241977 -0.00977105 C4.3520769 -0.00744815 4.3520769 -0.00744815 5.92283821 -0.00507832 C7.55050548 -0.00847665 7.55050548 -0.00847665 9.21105492 -0.01194364 C12.87151389 -0.01830771 16.53193607 -0.01745274 20.19239998 -0.01662922 C22.80686173 -0.01961921 25.42132304 -0.02302137 28.03578377 -0.02680683 C34.41500921 -0.03512488 40.79422541 -0.0378622 47.17345582 -0.03841921 C52.35739563 -0.03889385 57.54133238 -0.04094597 62.72527122 -0.04411983 C77.41297638 -0.05292974 92.10067422 -0.05753871 106.78838204 -0.05678936 C107.97692072 -0.05672943 107.97692072 -0.05672943 109.18947029 -0.05666828 C109.98279358 -0.0566274 110.77611686 -0.05658652 111.59348024 -0.0565444 C124.45258453 -0.05613789 137.31165955 -0.06570787 150.17075537 -0.07980665 C163.36486488 -0.09415892 176.55896011 -0.10107746 189.75307763 -0.10021287 C197.16438159 -0.09988049 204.57565488 -0.10264542 211.98695183 -0.11339092 C218.95539851 -0.12342933 225.92377925 -0.12317232 232.89222908 -0.11587429 C235.45451769 -0.1148246 238.01681028 -0.11721396 240.57909203 -0.12323475 C244.06777502 -0.13090342 247.55623074 -0.1263439 251.04490852 -0.11860371 C252.06688516 -0.12374727 253.08886181 -0.12889083 254.14180744 -0.13419026 C255.54177847 -0.12729207 255.54177847 -0.12729207 256.97003174 -0.12025452 C257.77547357 -0.12047188 258.58091541 -0.12068925 259.41076458 -0.12091321 C262.81345588 0.26504042 264.94501413 1.4561011 267.33595467 3.87106609 C268.99225691 6.80400881 268.99875254 8.89010251 269.00929451 12.2497282 C269.0131617 13.43244305 269.01702888 14.61515789 269.02101326 15.83371258 C269.00361092 17.68126141 269.00361092 17.68126141 268.98585701 19.56613445 C268.99745857 20.79396648 269.00906013 22.02179852 269.02101326 23.28683758 C269.01714607 24.47084148 269.01327888 25.65484539 269.00929451 26.8747282 C269.00591072 27.95423748 269.00252693 29.03374676 268.9990406 30.14596844 C268.5570943 33.5417282 267.6452484 35.39490235 265.61085701 38.12863445 C262.44601521 40.23852898 261.68972487 40.38072696 258.07301807 40.39428329 C257.13719511 40.40258228 256.20137214 40.41088127 255.2371909 40.41943175 C254.207248 40.4183809 253.1773051 40.41733006 252.11615181 40.41624737 C250.47706894 40.42621908 250.47706894 40.42621908 248.80487329 40.43639225 C245.12453523 40.45615775 241.4443185 40.46147341 237.76393318 40.46676922 C235.132862 40.47765889 232.50179396 40.48933 229.87072945 40.5017271 C221.96237057 40.53649156 214.05401627 40.55206645 206.14559767 40.56585041 C202.42208797 40.57281035 198.69858383 40.58196736 194.97507858 40.5909586 C182.59897868 40.62016232 170.22288423 40.64495661 157.84675312 40.65558243 C157.05454804 40.65627312 156.26234296 40.65696382 155.44613167 40.65767544 C154.65202266 40.65836746 153.85791366 40.65905947 153.03974074 40.65977246 C151.43055228 40.66118445 149.82136382 40.66260526 148.21217537 40.66403484 C147.01485378 40.6650926 147.01485378 40.6650926 145.79334388 40.66617172 C132.85793036 40.67842349 119.92280983 40.7212211 106.98751792 40.77697504 C93.70973975 40.83374102 80.43210975 40.86423152 67.15420896 40.86859459 C59.69798084 40.87167785 52.24215978 40.88620124 44.78604889 40.92987537 C38.43716498 40.96695917 32.08879831 40.98016767 25.73982164 40.96217049 C22.50019904 40.95371081 19.26185505 40.96038782 16.02232552 40.98998928 C12.50948249 41.02026027 8.99934637 41.00753679 5.48651314 40.98387432 C4.4632624 41.00289997 3.44001167 41.02192562 2.38575333 41.04152781 C-4.33416344 40.93349358 -4.33416344 40.93349358 -7.36446416 38.62163341 C-10.70047681 34.88960045 -12.14882323 32.10186483 -12.15086174 26.9684782 C-12.1540844 25.84506023 -12.15730705 24.72164227 -12.16062737 23.56418133 C-12.13291252 22.40982586 -12.10519768 21.25547039 -12.07664299 20.06613445 C-12.09146721 18.9079118 -12.10629143 17.74968914 -12.12156487 16.55636883 C-12.02978584 7.15711733 -12.02978584 7.15711733 -8.97117424 3.3825407 C-5.67387457 0.50426248 -4.25083582 0.0037192 0 0 Z " fill="#39A933" transform="translate(71.3891429901123,349.8713655471802)"/>
<path d="M0 0 C32.90247765 -3.16651029 32.90247765 -3.16651029 40.84863281 1.76953125 C45.00251839 6.31818326 47.09622777 11.69618849 49.05566406 17.46875 C50.44135526 21.18303292 52.44872643 24.02666732 54.75 27.25 C55.38421875 28.18328125 56.0184375 29.1165625 56.671875 30.078125 C57.11015625 30.71234375 57.5484375 31.3465625 58 32 C57.505 32.99 57.505 32.99 57 34 C56.38511719 33.566875 55.77023438 33.13375 55.13671875 32.6875 C54.32847656 32.130625 53.52023438 31.57375 52.6875 31 C51.88699219 30.443125 51.08648437 29.88625 50.26171875 29.3125 C48.00336982 27.74904036 48.00336982 27.74904036 45 28 C44.45811035 28.97888184 44.45811035 28.97888184 43.90527344 29.97753906 C37.05800693 42.32684158 30.18828292 54.63195008 22.73339844 66.62792969 C20.25243919 70.67091053 18.26731837 74.38018244 17 79 C13.8827101 75.34053548 11.62021547 71.65484007 9.43359375 67.37890625 C8.95334496 66.44533546 8.95334496 66.44533546 8.46339417 65.49290466 C7.44945822 63.51876895 6.44340424 61.54073809 5.4375 59.5625 C4.75897448 58.23867029 4.07994238 56.91510009 3.40039062 55.59179688 C1.59195136 52.06539138 -0.20853558 48.53506831 -2 45 C-2.83156616 43.40526855 -2.83156616 43.40526855 -3.67993164 41.77832031 C-5.44260761 38.06845301 -5.59846719 36.09233552 -5 32 C-3.3214761 28.26376311 -1.25364793 24.80747686 0.875 21.3125 C1.97711669 19.45475575 3.07870007 17.59669498 4.1796875 15.73828125 C4.67194824 14.92399658 5.16420898 14.10971191 5.67138672 13.27075195 C6.87396036 11.21541614 7.96391236 9.14311075 9 7 C8.3503125 6.57847656 7.700625 6.15695313 7.03125 5.72265625 C6.1959375 5.17480469 5.360625 4.62695312 4.5 4.0625 C3.6646875 3.51722656 2.829375 2.97195312 1.96875 2.41015625 C1.3190625 1.94480469 0.669375 1.47945313 0 1 C0 0.67 0 0.34 0 0 Z " fill="#104E9D" transform="translate(111,85)"/>
<path d="M0 0 C6.15638608 -0.07431567 12.31250935 -0.12868084 18.46923828 -0.16479492 C20.56238353 -0.17985469 22.65549736 -0.20030671 24.74853516 -0.22631836 C27.76212328 -0.26282501 30.77529312 -0.27975473 33.7890625 -0.29296875 C34.72054108 -0.30845261 35.65201965 -0.32393646 36.61172485 -0.33988953 C41.84465209 -0.34123626 45.47409214 0.06512008 50 3 C54.6867565 8.07565757 57.98237822 14.5361861 61.4375 20.5 C61.79183105 21.11141846 62.14616211 21.72283691 62.51123047 22.3527832 C65 26.75224169 65 26.75224169 65 29 C65.69867188 28.55527344 66.39734375 28.11054687 67.1171875 27.65234375 C68.02726562 27.08644531 68.93734375 26.52054688 69.875 25.9375 C71.23238281 25.08478516 71.23238281 25.08478516 72.6171875 24.21484375 C73.40351563 23.81394531 74.18984375 23.41304687 75 23 C75.66 23.33 76.32 23.66 77 24 C74.78022458 28.05897433 72.55640101 32.11569374 70.32885742 36.17041016 C69.5722162 37.54903474 68.8166693 38.92826053 68.06225586 40.30810547 C66.97539355 42.29555177 65.88456648 44.28077654 64.79296875 46.265625 C64.45847214 46.87931946 64.12397552 47.49301392 63.77934265 48.12530518 C60.0595401 54.86870901 60.0595401 54.86870901 58 57 C55.78613281 57.54589844 55.78613281 57.54589844 53.203125 57.609375 C52.25058838 57.64168213 51.29805176 57.67398926 50.31665039 57.70727539 C49.30465576 57.72137451 48.29266113 57.73547363 47.25 57.75 C46.22189209 57.77892334 45.19378418 57.80784668 44.13452148 57.83764648 C41.08953656 57.91596718 38.04576451 57.96485069 35 58 C34.15904785 58.0098291 33.3180957 58.0196582 32.45166016 58.02978516 C28.30015245 58.06756607 24.15143491 58.05902514 20 58 C23.22157887 55.37942156 26.39102519 53.06227132 30 51 C28.75073675 47.73352192 27.36531858 44.69515775 25.63671875 41.65625 C25.16806396 40.83181396 24.69940918 40.00737793 24.21655273 39.15795898 C23.71196533 38.28083252 23.20737793 37.40370605 22.6875 36.5 C22.16422119 35.58742432 21.64094238 34.67484863 21.10180664 33.73461914 C17.15648681 26.90085547 13.08773801 20.1485733 8.9375 13.4375 C8.38989014 12.55191406 7.84228027 11.66632812 7.27807617 10.75390625 C4.97259351 7.05534028 2.65415814 3.46078061 0 0 Z " fill="#104E9D" transform="translate(189,21)"/>
<path d="M0 0 C0.33 0 0.66 0 1 0 C1 4.62 1 9.24 1 14 C8.38015083 13.8919232 15.76021427 13.7798311 23.14019489 13.66066074 C26.56698228 13.60548647 29.99377828 13.55207534 33.4206543 13.50268555 C37.35995251 13.44583335 41.2991074 13.38132688 45.23828125 13.31640625 C47.0852636 13.29133751 47.0852636 13.29133751 48.96955872 13.26576233 C50.68099312 13.2358445 50.68099312 13.2358445 52.42700195 13.20532227 C53.93590752 13.18200584 53.93590752 13.18200584 55.47529602 13.15821838 C58.12604053 13.1003603 58.12604053 13.1003603 61 12 C59.27879486 17.12238894 56.33902305 21.42451915 53.4375 25.9375 C52.90390869 26.77345703 52.37031738 27.60941406 51.82055664 28.47070312 C50.73498452 30.17022641 49.64767251 31.86863965 48.55859375 33.56591797 C47.13453385 35.78989623 45.72116205 38.02015551 44.3125 40.25390625 C43.52103513 41.50273208 42.72938148 42.7514383 41.9375 44 C41.24527344 45.093125 40.55304688 46.18625 39.83984375 47.3125 C37.40881441 50.86355773 36.10676594 52.63107802 32 54 C29.64319787 54.08397157 27.28405919 54.10728187 24.92578125 54.09765625 C23.90003242 54.09553383 23.90003242 54.09553383 22.8535614 54.09336853 C20.67316278 54.08777876 18.49286749 54.07522822 16.3125 54.0625 C14.83268378 54.05748367 13.35286594 54.052921 11.87304688 54.04882812 C8.24866443 54.03781271 4.6243423 54.02055512 1 54 C1 57.63 1 61.26 1 65 C-1.88786997 62.11213003 -3.51746108 59.64064169 -5.5390625 56.125 C-5.86538666 55.5592627 -6.19171082 54.99352539 -6.52792358 54.41064453 C-7.21424933 53.21842873 -7.89825717 52.02487591 -8.58007812 50.83007812 C-9.62319341 49.00316406 -10.67425928 47.18100914 -11.7265625 45.359375 C-16.85648745 36.43053764 -16.85648745 36.43053764 -18 33 C-16.99951172 30.59912109 -16.99951172 30.59912109 -15.4296875 27.7734375 C-14.57890625 26.22462891 -14.57890625 26.22462891 -13.7109375 24.64453125 C-13.10507813 23.56558594 -12.49921875 22.48664063 -11.875 21.375 C-11.29234375 20.31925781 -10.7096875 19.26351562 -10.109375 18.17578125 C-8.41595188 15.11167261 -6.70947847 12.05517344 -5 9 C-4.02280861 7.24253703 -3.04617325 5.48476468 -2.0703125 3.7265625 C-1.38020833 2.484375 -0.69010417 1.2421875 0 0 Z " fill="#0F4D9D" transform="translate(221,133)"/>
<path d="M0 0 C0.86825912 0.00222061 1.73651825 0.00444122 2.63108826 0.00672913 C3.61202957 0.00680466 4.59297089 0.00688019 5.6036377 0.00695801 C6.6702916 0.01211929 7.7369455 0.01728058 8.83592224 0.02259827 C10.46520912 0.02472069 10.46520912 0.02472069 12.12741089 0.02688599 C15.61230674 0.03250403 19.09713941 0.04505959 22.58201599 0.05775452 C24.93813486 0.06276719 27.29425473 0.0673305 29.65037537 0.07142639 C35.44013311 0.08163041 41.22975344 0.10120228 47.01951599 0.12025452 C47.01951599 14.64025452 47.01951599 29.16025452 47.01951599 44.12025452 C39.92451599 44.20275452 32.82951599 44.28525452 25.51951599 44.37025452 C23.29523865 44.40667053 21.0709613 44.44308655 18.77928162 44.48060608 C16.99478619 44.49230043 15.21028001 44.50249049 13.42576599 44.51087952 C12.51665466 44.53134338 11.60754333 44.55180725 10.67088318 44.57289124 C4.61578825 44.57617135 0.07332759 43.56783288 -4.98048401 40.12025452 C-7.03907776 37.86634827 -7.03907776 37.86634827 -8.41798401 35.55775452 C-8.89106995 34.79334045 -9.36415588 34.02892639 -9.85157776 33.24134827 C-12.64584009 27.99122908 -13.0511433 22.9124548 -11.98048401 17.12025452 C-4.86896795 0.29564257 -4.86896795 0.29564257 0 0 Z " fill="#104E9D" transform="translate(141.98048400878906,144.87974548339844)"/>
<path d="M0 0 C5.81123952 3.37051892 9.44212817 8.30247068 13.0625 13.8125 C13.48595703 14.41578125 13.90941406 15.0190625 14.34570312 15.640625 C15.52734375 17.4375 15.52734375 17.4375 17.125 20.8125 C16.05744861 24.27906297 14.36048951 27.37708471 12.62109375 30.55078125 C12.13157227 31.44651855 11.64205078 32.34225586 11.13769531 33.26513672 C10.35797363 34.68076904 10.35797363 34.68076904 9.5625 36.125 C9.03108398 37.09453613 8.49966797 38.06407227 7.95214844 39.06298828 C3.40302333 47.34665311 -1.21161388 55.59269314 -5.875 63.8125 C-10.16685085 62.49518738 -13.96016245 60.83738668 -17.90234375 58.6953125 C-19.58553711 57.78458984 -19.58553711 57.78458984 -21.30273438 56.85546875 C-22.46095703 56.22253906 -23.61917969 55.58960938 -24.8125 54.9375 C-25.96685547 54.31230469 -27.12121094 53.68710938 -28.31054688 53.04296875 C-33.8679272 50.02674283 -39.40363626 46.98222747 -44.875 43.8125 C-43.49482873 39.24735134 -41.64674925 35.27243424 -39.35546875 31.09375 C-39.01502029 30.47278442 -38.67457184 29.85181885 -38.32380676 29.21203613 C-37.60600142 27.90640965 -36.88563652 26.6021874 -36.1628418 25.29931641 C-35.06809886 23.32260951 -33.98577851 21.33945528 -32.90429688 19.35546875 C-32.20126383 18.08031924 -31.49751104 16.80556624 -30.79296875 15.53125 C-29.84587036 13.81325195 -29.84587036 13.81325195 -28.87963867 12.06054688 C-22.14353504 1.14627057 -12.95604933 -4.92216721 0 0 Z " fill="#104E9D" transform="translate(183.875,21.1875)"/>
<path d="M0 0 C3.15912474 2.90993497 5.20900744 5.78749441 7.27734375 9.54296875 C7.87353516 10.61740234 8.46972656 11.69183594 9.08398438 12.79882812 C9.69564453 13.91708984 10.30730469 15.03535156 10.9375 16.1875 C11.54529297 17.28642578 12.15308594 18.38535156 12.77929688 19.51757812 C13.97174881 21.67479699 15.1592987 23.834734 16.34155273 25.99755859 C17.38530645 27.88716307 18.44745258 29.76683795 19.53540039 31.63134766 C19.98778076 32.40913574 20.44016113 33.18692383 20.90625 33.98828125 C21.30005859 34.64997314 21.69386719 35.31166504 22.09960938 35.9934082 C24.54947093 41.45311865 23.53283686 47.31694722 21.5 52.75 C19.13445295 57.53196607 15.57181819 60.37143924 11 63 C3.41939461 65.52686846 -5.40587967 67.11091237 -13 64 C-18.91517213 58.37703264 -22.11005204 50.46121402 -25.49072266 43.16064453 C-27.66990644 38.59711926 -30.2460251 34.31461453 -32.875 30 C-33.68715459 28.62633294 -34.49731052 27.25148054 -35.3046875 25.875 C-36.14386719 24.451875 -36.14386719 24.451875 -37 23 C-34.08163502 19.82750773 -31.19638891 17.78791514 -27.421875 15.72265625 C-26.34292969 15.12646484 -25.26398438 14.53027344 -24.15234375 13.91601562 C-23.02957031 13.30435547 -21.90679687 12.69269531 -20.75 12.0625 C-13.71822259 8.20279913 -6.7497485 4.33794812 0 0 Z " fill="#104E9D" transform="translate(271,80)"/>
<path d="M0 0 C1.98 0 3.96 0 6 0 C7.68890304 4.58416539 8.6685786 9.13453789 9.53515625 13.92578125 C9.80103133 15.97948506 9.80103133 15.97948506 11 17 C11.27714844 15.85660156 11.55429688 14.71320313 11.83984375 13.53515625 C12.20554378 12.04422535 12.57143929 10.55334239 12.9375 9.0625 C13.11990234 8.30775391 13.30230469 7.55300781 13.49023438 6.77539062 C14.88671875 1.11328125 14.88671875 1.11328125 16 0 C18.33297433 -0.04092937 20.66705225 -0.04241723 23 0 C25.41862058 5.93661416 26.9007105 11.68878497 28 18 C29.72852643 12.01663928 31.36959185 6.01077136 33 0 C34.98 0 36.96 0 39 0 C37.84194871 6.91783272 36.43979346 13.77503081 34.9375 20.625 C34.67598145 21.83422119 34.67598145 21.83422119 34.40917969 23.06787109 C33.11903918 28.88096082 33.11903918 28.88096082 32 30 C29.69 30 27.38 30 25 30 C22.525 20.595 22.525 20.595 20 11 C17.96246919 15.75423856 16.46808813 19.54000745 15.3125 24.4375 C15.06113281 25.48808594 14.80976563 26.53867187 14.55078125 27.62109375 C14.36902344 28.40613281 14.18726563 29.19117188 14 30 C11.36 30 8.72 30 6 30 C4.9948379 25.56365291 3.99675269 21.12574342 3 16.6875 C2.71382812 15.42486328 2.42765625 14.16222656 2.1328125 12.86132812 C1.86210937 11.65283203 1.59140625 10.44433594 1.3125 9.19921875 C1.06113281 8.08377686 0.80976563 6.96833496 0.55078125 5.8190918 C0 3 0 3 0 0 Z " fill="#F1F5F9" transform="translate(139,285)"/>
<path d="M0 0 C2.68125 -0.103125 5.3625 -0.20625 8.125 -0.3125 C9.37434326 -0.38078003 9.37434326 -0.38078003 10.64892578 -0.45043945 C14.63605909 -0.52416955 17.29256841 -0.23484819 20.515625 2.234375 C23.02879723 5.03205729 23.79047471 5.90296323 23.625 9.5625 C23.40663065 12.76347507 23.12047612 13.83382605 21.1875 16.5 C17.68796356 18.89968213 14.94278485 19.11614006 10.8125 19.0625 C9.224375 19.041875 7.63625 19.02125 6 19 C6 22.96 6 26.92 6 31 C4.02 31 2.04 31 0 31 C0 20.77 0 10.54 0 0 Z " fill="#F7F9FB" transform="translate(135,234)"/>
<path d="M0 0 C2.36293002 1.15632746 4.14983755 2.14983755 6 4 C6.15620555 5.41327947 6.25056173 6.8335459 6.31640625 8.25390625 C6.35830078 9.10791016 6.40019531 9.96191406 6.44335938 10.84179688 C6.48267578 11.73962891 6.52199219 12.63746094 6.5625 13.5625 C6.60568359 14.46419922 6.64886719 15.36589844 6.69335938 16.29492188 C6.79978142 18.52978485 6.90179988 20.76476308 7 23 C5.02 23 3.04 23 1 23 C1 22.34 1 21.68 1 21 C0.484375 21.33 -0.03125 21.66 -0.5625 22 C-3.91402596 23.37498501 -6.40965387 23.38467994 -10 23 C-12.8520847 21.02547983 -13.81895125 19.90524375 -14.5 16.5 C-13.80594729 13.02973646 -12.90100789 12.05193241 -10 10 C-7.0338362 9.09636662 -4.05860365 8.49669632 -1 8 C-1 7.34 -1 6.68 -1 6 C-3.97 5.505 -3.97 5.505 -7 5 C-7 5.66 -7 6.32 -7 7 C-8.98 7 -10.96 7 -13 7 C-10.67342442 0.19924062 -6.89971337 -0.91458189 0 0 Z " fill="#EBF0F6" transform="translate(187,242)"/>
<path d="M0 0 C0.95648438 -0.02835937 1.91296875 -0.05671875 2.8984375 -0.0859375 C5.625 0.375 5.625 0.375 7.9296875 1.8203125 C10.44811567 5.61536324 10.29824903 9.15948892 10.375 13.625 C10.40464844 14.46546875 10.43429688 15.3059375 10.46484375 16.171875 C10.53531636 18.2390715 10.58244939 20.30704033 10.625 22.375 C9.40296875 22.35953125 8.1809375 22.3440625 6.921875 22.328125 C3.8171853 22.32538959 0.9345311 22.56669141 -2.125 23.125 C-5.39554484 23.52040266 -6.04221773 23.58603266 -8.9375 21.75 C-10.65565661 18.91130647 -11.02618804 17.63094021 -10.375 14.375 C-8.60764371 11.56329682 -7.07073615 10.56801771 -3.8828125 9.68359375 C-1.38581803 9.17782858 1.10397056 8.74064549 3.625 8.375 C3.295 7.385 2.965 6.395 2.625 5.375 C0.20854218 5.20812552 0.20854218 5.20812552 -2.375 5.375 C-3.035 6.035 -3.695 6.695 -4.375 7.375 C-7 7.5 -7 7.5 -9.375 7.375 C-7.30559713 1.75804935 -6.11425378 0.08196051 0 0 Z " fill="#EDF2F7" transform="translate(188.375,292.625)"/>
<path d="M0 0 C3.53133438 0.68148558 5.10904099 2.65044052 7.2265625 5.4296875 C8.2265625 7.4296875 8.2265625 7.4296875 8.2265625 13.4296875 C3.2765625 13.4296875 -1.6734375 13.4296875 -6.7734375 13.4296875 C-6.1134375 14.7496875 -5.4534375 16.0696875 -4.7734375 17.4296875 C-1.71435337 18.24553318 -1.71435337 18.24553318 1.2265625 18.4296875 C1.2265625 17.7696875 1.2265625 17.1096875 1.2265625 16.4296875 C3.2065625 16.4296875 5.1865625 16.4296875 7.2265625 16.4296875 C6.87635009 18.96872746 6.38644377 20.25062048 4.6640625 22.1796875 C1.20318649 23.95449571 -2.00923617 24.11068615 -5.7734375 23.4296875 C-9.21295898 21.33606573 -11.55371925 19.31060919 -12.7734375 15.4296875 C-13.31651707 9.4558122 -12.20214611 6.36408031 -8.44140625 1.8203125 C-5.77056757 -0.40642888 -3.35802742 -0.0984438 0 0 Z " fill="#EDF2F7" transform="translate(251.7734375,292.5703125)"/>
<path d="M0 0 C3 1.875 3 1.875 5 4 C5 4.66 5 5.32 5 6 C3.02 6.33 1.04 6.66 -1 7 C-1.33 6.34 -1.66 5.68 -2 5 C-3.65 5 -5.3 5 -7 5 C-7 5.66 -7 6.32 -7 7 C-5.96939453 7.27263672 -5.96939453 7.27263672 -4.91796875 7.55078125 C-4.01691406 7.80214844 -3.11585938 8.05351562 -2.1875 8.3125 C-1.29417969 8.55613281 -0.40085938 8.79976562 0.51953125 9.05078125 C3.10290672 10.03938005 4.38092642 10.77107537 6 13 C5.93526873 16.624951 5.7511751 19.02973216 3.5 21.9375 C-0.33170697 23.56597546 -3.90172271 23.54059273 -8 23 C-11 21.75 -11 21.75 -13 20 C-13.8125 17.8125 -13.8125 17.8125 -14 16 C-11.625 15.875 -11.625 15.875 -9 16 C-8.34 16.66 -7.68 17.32 -7 18 C-3.91652174 18.16681109 -3.91652174 18.16681109 -1 18 C-1 17.34 -1 16.68 -1 16 C-1.77085937 15.74605469 -2.54171875 15.49210937 -3.3359375 15.23046875 C-4.33882812 14.88628906 -5.34171875 14.54210937 -6.375 14.1875 C-7.37273437 13.85105469 -8.37046875 13.51460937 -9.3984375 13.16796875 C-12 12 -12 12 -14 9 C-14.36467846 6.0825723 -14.47575659 4.63434213 -12.6875 2.25 C-8.94418489 -0.52282601 -4.47752573 -0.65333547 0 0 Z " fill="#F0F4F8" transform="translate(211,242)"/>
<path d="M0 0 C2.6875 1.875 2.6875 1.875 4 4 C4 4.66 4 5.32 4 6 C-0.81938524 6.23509196 -4.46298506 5.45184478 -9 4 C-8.67 4.99 -8.34 5.98 -8 7 C-5.76763884 7.91849826 -5.76763884 7.91849826 -3.125 8.5 C0.4172578 9.36749171 2.79885213 9.977962 5 13 C5.0625 16.5 5.0625 16.5 4 20 C-0.51773253 23.41584655 -4.5633417 23.60407314 -10 23 C-13 21.1875 -13 21.1875 -15 19 C-15 18.01 -15 17.02 -15 16 C-13.02 16 -11.04 16 -9 16 C-8.67 16.66 -8.34 17.32 -8 18 C-6.02 18 -4.04 18 -2 18 C-1.67 17.01 -1.34 16.02 -1 15 C-1.67546875 14.90203125 -2.3509375 14.8040625 -3.046875 14.703125 C-10.29244538 13.48854962 -10.29244538 13.48854962 -13.625 11.1875 C-15.34049806 8.45829854 -15.63299295 7.16496476 -15 4 C-11.83431653 -1.57763278 -5.66087736 -0.87619043 0 0 Z " fill="#F2F5F9" transform="translate(217,293)"/>
<path d="M0 0 C3.0816964 1.36964285 4.57570471 2.29284118 6.3125 5.1875 C6.539375 5.785625 6.76625 6.38375 7 7 C5.02 7.33 3.04 7.66 1 8 C0.67 7.34 0.34 6.68 0 6 C-3.02934491 5.34227572 -3.02934491 5.34227572 -6 5 C-6.02687279 6.81242052 -6.04633715 8.62495233 -6.0625 10.4375 C-6.07410156 11.44683594 -6.08570313 12.45617187 -6.09765625 13.49609375 C-6.28612676 15.94021067 -6.28612676 15.94021067 -5 17 C-3.33382885 17.04063832 -1.66611905 17.042721 0 17 C0.33 16.01 0.66 15.02 1 14 C3.97 14.495 3.97 14.495 7 15 C6.62951193 17.5934165 5.94398898 19.08065587 4.4375 21.25 C1.56759123 23.31044732 -0.53291016 23.51073746 -4.03515625 23.328125 C-6.8862038 22.85200573 -8.75123799 21.78578159 -11 20 C-13.9657349 15.55139766 -13.64087636 11.21856465 -13 6 C-9.50940639 0.18234399 -6.60809839 -0.44800667 0 0 Z " fill="#EFF3F8" transform="translate(260,242)"/>
<path d="M0 0 C0 2.31 0 4.62 0 7 C1.32 7 2.64 7 4 7 C4 8.65 4 10.3 4 12 C2.68 12 1.36 12 0 12 C0 16.29 0 20.58 0 25 C1.32 25 2.64 25 4 25 C4 26.65 4 28.3 4 30 C-2.39655172 30.36206897 -2.39655172 30.36206897 -4.71875 28.96875 C-6.69717729 25.92872758 -6.31481877 22.80886916 -6.1875 19.3125 C-6.17396484 18.61060547 -6.16042969 17.90871094 -6.14648438 17.18554688 C-6.11120182 15.45670171 -6.05739583 13.72825235 -6 12 C-6.66 12 -7.32 12 -8 12 C-8 10.68 -8 9.36 -8 8 C-7.34 8 -6.68 8 -6 8 C-6.103125 7.236875 -6.20625 6.47375 -6.3125 5.6875 C-6.209375 4.800625 -6.10625 3.91375 -6 3 C-1.96551724 0 -1.96551724 0 0 0 Z " fill="#F0F3F8" transform="translate(233,286)"/>
<path d="M0 0 C0 2.64 0 5.28 0 8 C1.32 8 2.64 8 4 8 C4 9.32 4 10.64 4 12 C2.68 12 1.36 12 0 12 C0 16.29 0 20.58 0 25 C1.32 25 2.64 25 4 25 C3.67 26.65 3.34 28.3 3 30 C-2.40983607 30.36065574 -2.40983607 30.36065574 -4.6875 28.96875 C-6.708874 25.936689 -6.31526465 22.82111386 -6.1875 19.3125 C-6.17396484 18.61060547 -6.16042969 17.90871094 -6.14648438 17.18554688 C-6.11120182 15.45670171 -6.05739583 13.72825235 -6 12 C-6.66 12 -7.32 12 -8 12 C-8 10.68 -8 9.36 -8 8 C-7.34 8 -6.68 8 -6 8 C-6.103125 7.236875 -6.20625 6.47375 -6.3125 5.6875 C-6.209375 4.800625 -6.10625 3.91375 -6 3 C-1.96551724 0 -1.96551724 0 0 0 Z " fill="#F4F7FA" transform="translate(228,235)"/>
<path d="M0 0 C1.98 0 3.96 0 6 0 C6 10.23 6 20.46 6 31 C4.02 31 2.04 31 0 31 C0 20.77 0 10.54 0 0 Z " fill="#EFF3F8" transform="translate(163,234)"/>
<path d="M0 0 C11.88 0 23.76 0 36 0 C36 0.33 36 0.66 36 1 C33.36 1.33 30.72 1.66 28 2 C28 2.99 28 3.98 28 5 C21.0765867 5.02531927 14.15318531 5.04285389 7.22973633 5.05493164 C4.873612 5.05996575 2.5174908 5.06679346 0.16137695 5.07543945 C-3.2218503 5.0875453 -6.60503632 5.09323749 -9.98828125 5.09765625 C-11.57277824 5.10539818 -11.57277824 5.10539818 -13.18928528 5.11329651 C-14.17007553 5.11337204 -15.15086578 5.11344757 -16.16137695 5.11352539 C-17.45710381 5.11685631 -17.45710381 5.11685631 -18.77900696 5.12025452 C-21 5 -21 5 -24 4 C-24 3.34 -24 2.68 -24 2 C-16.08 1.67 -8.16 1.34 0 1 C0 0.67 0 0.34 0 0 Z " fill="#E3EEE2" transform="translate(167,390)"/>
<path d="M0 0 C1.60875 -0.04125 3.2175 -0.0825 4.875 -0.125 C5.77992187 -0.14820313 6.68484375 -0.17140625 7.6171875 -0.1953125 C10 0 10 0 12 2 C12.25 4.5 12.25 4.5 12 7 C11.34 7.66 10.68 8.32 10 9 C10.495 9.61875 10.99 10.2375 11.5 10.875 C13 13 13 13 13 15 C10.18127263 14.61121002 9.22804402 14.29189635 7.4375 12 C6.963125 11.34 6.48875 10.68 6 10 C5.01 9.67 4.02 9.34 3 9 C3 10.65 3 12.3 3 14 C2.01 14 1.02 14 0 14 C0 9.38 0 4.76 0 0 Z " fill="#D9EED7" transform="translate(77,363)"/>
<path d="M0 0 C1.60875 -0.04125 3.2175 -0.0825 4.875 -0.125 C5.77992188 -0.14820313 6.68484375 -0.17140625 7.6171875 -0.1953125 C10 0 10 0 12 2 C11.625 4.625 11.625 4.625 11 7 C10.34 7 9.68 7 9 7 C9.66 7.94875 10.32 8.8975 11 9.875 C13 13 13 13 13 15 C9.79424013 14.65652573 9.02483241 14.0292146 6.875 11.5 C6.25625 10.675 5.6375 9.85 5 9 C4.34 8.67 3.68 8.34 3 8 C3 9.98 3 11.96 3 14 C2.01 14 1.02 14 0 14 C0 9.38 0 4.76 0 0 Z " fill="#F1F9F1" transform="translate(169,363)"/>
<path d="M0 0 C1.60875 -0.04125 3.2175 -0.0825 4.875 -0.125 C5.77992188 -0.14820313 6.68484375 -0.17140625 7.6171875 -0.1953125 C10 0 10 0 12 2 C11.6730244 4.61580479 11.17960932 6.64078137 10 9 C10.89363605 11.60931266 10.89363605 11.60931266 12 14 C10.125 13.6875 10.125 13.6875 8 13 C7.34 12.01 6.68 11.02 6 10 C5.01 9.67 4.02 9.34 3 9 C3 10.65 3 12.3 3 14 C2.01 14 1.02 14 0 14 C0 9.38 0 4.76 0 0 Z " fill="#F3F9F2" transform="translate(249,363)"/>
<path d="M0 0 C1.98 0 3.96 0 6 0 C6 7.26 6 14.52 6 22 C4.02 22 2.04 22 0 22 C0 14.74 0 7.48 0 0 Z " fill="#F0F4F9" transform="translate(236,243)"/>
<path d="M0 0 C0.99 0 1.98 0 3 0 C3 4.62 3 9.24 3 14 C-3.0546875 14.9765625 -3.0546875 14.9765625 -5 15 C-7 13 -7 13 -7.25 9.5 C-7 6 -7 6 -5 4 C-2.375 3.875 -2.375 3.875 0 4 C0 2.68 0 1.36 0 0 Z " fill="#E0F2DF" transform="translate(110,363)"/>
<path d="M0 0 C7.37042925 -0.36248013 7.37042925 -0.36248013 10.0625 1.1875 C11 3 11 3 10.8125 5.625 C10 8 10 8 8 9 C5.3276379 9.13415472 2.67749512 9.04318541 0 9 C0 6.03 0 3.06 0 0 Z " fill="#1D53A0" transform="translate(141,239)"/>
<path d="M0 0 C3 0.25 3 0.25 5 2.25 C5 3.57 5 4.89 5 6.25 C2.69 6.25 0.38 6.25 -2 6.25 C-2 6.91 -2 7.57 -2 8.25 C1.465 7.755 1.465 7.755 5 7.25 C4.34 8.57 3.68 9.89 3 11.25 C0.25913944 11.47223194 -1.43963721 11.59781139 -3.8125 10.125 C-5.52849028 7.41554166 -5.333728 5.38704316 -5 2.25 C-3 0.25 -3 0.25 0 0 Z " fill="#FCFDFC" transform="translate(188,366.75)"/>
<path d="M0 0 C3 0.25 3 0.25 5 2.25 C5 3.57 5 4.89 5 6.25 C2.69 6.25 0.38 6.25 -2 6.25 C-2 6.91 -2 7.57 -2 8.25 C1.465 7.755 1.465 7.755 5 7.25 C4.67 8.24 4.34 9.23 4 10.25 C-1.42465753 11.5760274 -1.42465753 11.5760274 -3.875 10.1875 C-5.47671956 7.42898298 -5.33302312 5.3804173 -5 2.25 C-3 0.25 -3 0.25 0 0 Z " fill="#C6E6C5" transform="translate(223,366.75)"/>
<path d="M0 0 C0.61875 0.598125 1.2375 1.19625 1.875 1.8125 C5.98491654 4.68944158 10.18171396 5.76502183 15 7 C14.67 8.32 14.34 9.64 14 11 C12.02 11 10.04 11 8 11 C7.67 10.01 7.34 9.02 7 8 C5.02 8 3.04 8 1 8 C0.67 8.66 0.34 9.32 0 10 C-1.125 6.6875 -1.125 6.6875 -2 3 C-1.34 2.01 -0.68 1.02 0 0 Z " fill="#20529F" transform="translate(201,301)"/>
<path d="M0 0 C2.5625 0.3125 2.5625 0.3125 4.375 1.625 C5.5625 3.3125 5.5625 3.3125 5.5625 6.3125 C3.2525 6.3125 0.9425 6.3125 -1.4375 6.3125 C-1.4375 6.9725 -1.4375 7.6325 -1.4375 8.3125 C0.5425 7.9825 2.5225 7.6525 4.5625 7.3125 C3.9025 8.6325 3.2425 9.9525 2.5625 11.3125 C0.1875 11.4375 0.1875 11.4375 -2.4375 11.3125 C-4.4375 9.3125 -4.4375 9.3125 -4.6875 5.8125 C-4.40166115 1.81075612 -4.09542045 0.5250539 0 0 Z " fill="#C7E6C6" transform="translate(318.4375,366.6875)"/>
<path d="M0 0 C2.5625 0.3125 2.5625 0.3125 4.375 1.625 C5.5625 3.3125 5.5625 3.3125 5.5625 6.3125 C3.2525 6.3125 0.9425 6.3125 -1.4375 6.3125 C-1.4375 6.9725 -1.4375 7.6325 -1.4375 8.3125 C0.5425 7.9825 2.5225 7.6525 4.5625 7.3125 C3.9025 8.6325 3.2425 9.9525 2.5625 11.3125 C0.1875 11.4375 0.1875 11.4375 -2.4375 11.3125 C-4.4375 9.3125 -4.4375 9.3125 -4.6875 5.8125 C-4.40166115 1.81075612 -4.09542045 0.5250539 0 0 Z " fill="#C8E7C6" transform="translate(267.4375,366.6875)"/>
<path d="M0 0 C3 0.25 3 0.25 5 2.25 C5 3.57 5 4.89 5 6.25 C2.69 6.25 0.38 6.25 -2 6.25 C-2 6.91 -2 7.57 -2 8.25 C-0.02 7.92 1.96 7.59 4 7.25 C4 8.24 4 9.23 4 10.25 C-1.42465753 11.5760274 -1.42465753 11.5760274 -3.875 10.1875 C-5.47671956 7.42898298 -5.33302312 5.3804173 -5 2.25 C-3 0.25 -3 0.25 0 0 Z " fill="#C6E6C5" transform="translate(96,366.75)"/>
<path d="M0 0 C2.5 0.25 2.5 0.25 4.5 2.25 C4.5 3.57 4.5 4.89 4.5 6.25 C2.52 6.25 0.54 6.25 -1.5 6.25 C-1.5 6.91 -1.5 7.57 -1.5 8.25 C0.48 7.92 2.46 7.59 4.5 7.25 C3.84 8.57 3.18 9.89 2.5 11.25 C0.125 11.375 0.125 11.375 -2.5 11.25 C-4.5 9.25 -4.5 9.25 -4.75 5.75 C-4.46177779 1.71488904 -4.15174939 0.41517494 0 0 Z " fill="#C6E6C4" transform="translate(143.5,366.75)"/>
<path d="M0 0 C1.9375 0.3125 1.9375 0.3125 4 1 C4.33 1.99 4.66 2.98 5 4 C5.66 2.68 6.32 1.36 7 0 C7.99 0 8.98 0 10 0 C8.97137215 5.44567686 7.75385216 10.11817117 5 15 C3.68 15 2.36 15 1 15 C1 14.34 1 13.68 1 13 C1.66 13 2.32 13 3 13 C2.68817931 11.58318366 2.37551263 10.16655349 2.0625 8.75 C1.88847656 7.96109375 1.71445312 7.1721875 1.53515625 6.359375 C1.052444 4.23121297 0.53836822 2.11467158 0 0 Z " fill="#E2F2E1" transform="translate(285,367)"/>
<path d="M0 0 C0.99 0 1.98 0 3 0 C3 2.64 3 5.28 3 8 C4.32 8 5.64 8 7 8 C7 5.36 7 2.72 7 0 C7.99 0 8.98 0 10 0 C10 3.3 10 6.6 10 10 C3.9453125 10.9765625 3.9453125 10.9765625 2 11 C0 9 0 9 -0.1953125 6.8359375 C-0.17210937 6.02382813 -0.14890625 5.21171875 -0.125 4.375 C-0.10695312 3.55773437 -0.08890625 2.74046875 -0.0703125 1.8984375 C-0.04710937 1.27195312 -0.02390625 0.64546875 0 0 Z " fill="#E0F1DF" transform="translate(195,367)"/>
<path d="M0 0 C2.31 0 4.62 0 7 0 C7.33 0.99 7.66 1.98 8 3 C5.03 2.505 5.03 2.505 2 2 C2 2.66 2 3.32 2 4 C4.97 4.495 4.97 4.495 8 5 C8.33 6.32 8.66 7.64 9 9 C5.77208445 11.1519437 4.71599191 11.20086443 1 11 C0.34 9.68 -0.32 8.36 -1 7 C0.65 7 2.3 7 4 7 C2.35 6.01 0.7 5.02 -1 4 C-0.67 2.68 -0.34 1.36 0 0 Z " fill="#ECF7EB" transform="translate(208,367)"/>
<path d="M0 0 C0.99 0 1.98 0 3 0 C3 2.64 3 5.28 3 8 C3.99 8 4.98 8 6 8 C6 5.36 6 2.72 6 0 C6.99 0 7.98 0 9 0 C9 3.3 9 6.6 9 10 C2.84765625 10.87890625 2.84765625 10.87890625 1 11 C0 10 0 10 -0.09765625 7.71484375 C-0.08605469 6.79832031 -0.07445313 5.88179688 -0.0625 4.9375 C-0.05347656 4.01839844 -0.04445313 3.09929687 -0.03515625 2.15234375 C-0.02355469 1.44207031 -0.01195313 0.73179687 0 0 Z " fill="#D8EED7" transform="translate(116,367)"/>
<path d="M0 0 C2.31 0 4.62 0 7 0 C7 0.33 7 0.66 7 1 C5.35 1 3.7 1 2 1 C2 2.32 2 3.64 2 5 C3.65 5 5.3 5 7 5 C7 5.99 7 6.98 7 8 C7.639375 8.2475 8.27875 8.495 8.9375 8.75 C11 10 11 10 11.75 12.125 C11.87375 13.053125 11.87375 13.053125 12 14 C9.18127263 13.61121002 8.22804402 13.29189635 6.4375 11 C5.963125 10.34 5.48875 9.68 5 9 C4.01 8.67 3.02 8.34 2 8 C2 9.65 2 11.3 2 13 C1.34 13 0.68 13 0 13 C0 8.71 0 4.42 0 0 Z " fill="#FDFEFD" transform="translate(78,364)"/>
<path d="M0 0 C0.94875 0.04125 1.8975 0.0825 2.875 0.125 C3.535 1.445 4.195 2.765 4.875 4.125 C3.885 4.125 2.895 4.125 1.875 4.125 C1.875 3.465 1.875 2.805 1.875 2.125 C0.885 2.455 -0.105 2.785 -1.125 3.125 C-1.125 4.445 -1.125 5.765 -1.125 7.125 C0.855 7.125 2.835 7.125 4.875 7.125 C4.215 8.445 3.555 9.765 2.875 11.125 C0.13413944 11.34723194 -1.56463721 11.47281139 -3.9375 10 C-5.65349028 7.29054166 -5.458728 5.26204316 -5.125 2.125 C-3.125 0.125 -3.125 0.125 0 0 Z " fill="#E7F4E6" transform="translate(279.125,366.875)"/>
<path d="M0 0 C4.04165139 -0.02915731 8.0832755 -0.04685173 12.125 -0.0625 C13.83816406 -0.07506836 13.83816406 -0.07506836 15.5859375 -0.08789062 C16.69453125 -0.09111328 17.803125 -0.09433594 18.9453125 -0.09765625 C19.96125488 -0.10289307 20.97719727 -0.10812988 22.02392578 -0.11352539 C25.09114726 0.00347691 27.98633134 0.43223583 31 1 C30.67 1.66 30.34 2.32 30 3 C25.56251365 3.02896822 21.12505153 3.04678788 16.6875 3.0625 C15.42486328 3.07087891 14.16222656 3.07925781 12.86132812 3.08789062 C11.04858398 3.09272461 11.04858398 3.09272461 9.19921875 3.09765625 C8.08377686 3.10289307 6.96833496 3.10812988 5.8190918 3.11352539 C3 3 3 3 0 2 C0 1.34 0 0.68 0 0 Z " fill="#979797" transform="translate(143,392)"/>
<path d="M0 0 C9.57 0 19.14 0 29 0 C28.67 0.99 28.34 1.98 28 3 C24.64585201 3.02929977 21.29173747 3.0468989 17.9375 3.0625 C16.99455078 3.07087891 16.05160156 3.07925781 15.08007812 3.08789062 C9.9369232 3.10581103 5.06741573 2.89259611 0 2 C0 1.34 0 0.68 0 0 Z " fill="#959595" transform="translate(228,392)"/>
<path d="M0 0 C0.94875 0.04125 1.8975 0.0825 2.875 0.125 C3.205 1.115 3.535 2.105 3.875 3.125 C2.225 3.125 0.575 3.125 -1.125 3.125 C-1.455 4.775 -1.785 6.425 -2.125 8.125 C1.34 7.63 1.34 7.63 4.875 7.125 C3.885 8.445 2.895 9.765 1.875 11.125 C-2.875 10.375 -2.875 10.375 -5.125 8.125 C-5.375 5.125 -5.375 5.125 -5.125 2.125 C-3.125 0.125 -3.125 0.125 0 0 Z " fill="#E9F5E9" transform="translate(302.125,366.875)"/>
<path d="M0 0 C0.33 0 0.66 0 1 0 C1.309375 1.134375 1.61875 2.26875 1.9375 3.4375 C2.62924531 6.78775099 2.62924531 6.78775099 4 8 C6.45792029 8.33343551 6.45792029 8.33343551 9 8 C9.66 7.01 10.32 6.02 11 5 C9.02 5.33 7.04 5.66 5 6 C4.67 4.35 4.34 2.7 4 1 C4.66 1 5.32 1 6 1 C6.33 1.99 6.66 2.98 7 4 C7.33 3.34 7.66 2.68 8 2 C9.32 2 10.64 2 12 2 C12.99 4.31 13.98 6.62 15 9 C9.90085558 10.23615622 5.02439385 10.67479795 0 9 C0 6.03 0 3.06 0 0 Z " fill="#28A224" transform="translate(126,369)"/>
<path d="M0 0 C0.94875 0.04125 1.8975 0.0825 2.875 0.125 C3.205 1.115 3.535 2.105 3.875 3.125 C1.895 3.125 -0.085 3.125 -2.125 3.125 C-2.125 4.445 -2.125 5.765 -2.125 7.125 C-0.145 7.125 1.835 7.125 3.875 7.125 C3.215 8.445 2.555 9.765 1.875 11.125 C-0.5 11.25 -0.5 11.25 -3.125 11.125 C-5.125 9.125 -5.125 9.125 -5.375 5.625 C-5.05328869 1.12104166 -4.56738407 0.18269536 0 0 Z " fill="#EAF5E9" transform="translate(133.125,366.875)"/>
<path d="M0 0 C14.52 0 29.04 0 44 0 C44 0.33 44 0.66 44 1 C30.8 1.33 17.6 1.66 4 2 C3.67 2.66 3.34 3.32 3 4 C2.01 2.68 1.02 1.36 0 0 Z " fill="#295FA7" transform="translate(189,21)"/>
<path d="M0 0 C0.99 0 1.98 0 3 0 C3 6.93 3 13.86 3 21 C2.01 21.33 1.02 21.66 0 22 C0 14.74 0 7.48 0 0 Z " fill="#054699" transform="translate(233,243)"/>
<path d="M0 0 C8.25 0 16.5 0 25 0 C25 0.66 25 1.32 25 2 C21.95866211 2.19572967 18.91723937 2.38183916 15.875 2.5625 C14.59109375 2.64661133 14.59109375 2.64661133 13.28125 2.73242188 C8.67818141 2.99798352 4.54180454 3.00515346 0 2 C0 1.34 0 0.68 0 0 Z " fill="#929292" transform="translate(199,392)"/>
<path d="M0 0 C6.6 0 13.2 0 20 0 C20 0.99 20 1.98 20 3 C17.2291017 3.02696009 14.4584655 3.04681952 11.6875 3.0625 C10.50897461 3.07506836 10.50897461 3.07506836 9.30664062 3.08789062 C8.54931641 3.09111328 7.79199219 3.09433594 7.01171875 3.09765625 C5.96697388 3.10551147 5.96697388 3.10551147 4.90112305 3.11352539 C3 3 3 3 0 2 C0 1.34 0 0.68 0 0 Z " fill="#969696" transform="translate(175,392)"/>
<path d="M0 0 C2.875 -0.125 2.875 -0.125 6 0 C6.66 0.66 7.32 1.32 8 2 C7.8125 4.5 7.8125 4.5 7 7 C6.01 7.66 5.02 8.32 4 9 C4 8.01 4 7.02 4 6 C2.35 6 0.7 6 -1 6 C-0.67 4.02 -0.34 2.04 0 0 Z " fill="#A1D69F" transform="translate(253,363)"/>
<path d="M0 0 C0.33 0.66 0.66 1.32 1 2 C0.3359375 3.69921875 0.3359375 3.69921875 -0.625 5.6875 C-2.04404671 9.24156699 -2.05085476 9.83048413 -0.875 13.75 C0.62142902 16.3438103 2.07738252 18.71116967 4 21 C1.33333333 19.66666667 -1.33333333 18.33333333 -4 17 C-4 12.05 -4 7.1 -4 2 C-3.67 2.66 -3.34 3.32 -3 4 C-2.34 4 -1.68 4 -1 4 C-0.67 2.68 -0.34 1.36 0 0 Z " fill="#054095" transform="translate(202,295)"/>
<path d="M0 0 C2.5 0.25 2.5 0.25 4.5 2.25 C4.125 4.875 4.125 4.875 3.5 7.25 C2.84 7.25 2.18 7.25 1.5 7.25 C1.17 7.91 0.84 8.57 0.5 9.25 C0.5 8.26 0.5 7.27 0.5 6.25 C-1.15 6.25 -2.8 6.25 -4.5 6.25 C-4.5 1.90885892 -4.48346409 0.44834641 0 0 Z " fill="#E4F3E3" transform="translate(176.5,362.75)"/>
<path d="M0 0 C1 3 1 3 -0.546875 6.3203125 C-1.27052944 7.59468925 -2.00539868 8.86274776 -2.75 10.125 C-3.29140625 11.09373047 -3.29140625 11.09373047 -3.84375 12.08203125 C-6.61513799 16.87171266 -6.61513799 16.87171266 -10 18 C-8.3523657 11.90375311 -5.34188389 6.33066806 -2 1 C-1.34 0.67 -0.68 0.34 0 0 Z " fill="#E5ECF4" transform="translate(138,145)"/>
<path d="M0 0 C0.99 0 1.98 0 3 0 C3 4.95 3 9.9 3 15 C2.01 15 1.02 15 0 15 C0 10.05 0 5.1 0 0 Z " fill="#E1F2E0" transform="translate(309,363)"/>
<path d="M0 0 C0.99 0 1.98 0 3 0 C3 4.62 3 9.24 3 14 C1.68 13.34 0.36 12.68 -1 12 C-0.979375 11.21625 -0.95875 10.4325 -0.9375 9.625 C-0.81315937 7.01885039 -0.81315937 7.01885039 -2 5 C-1.34 4.67 -0.68 4.34 0 4 C0 2.68 0 1.36 0 0 Z " fill="#F0F8F0" transform="translate(110,363)"/>
<path d="M0 0 C0.125 2.375 0.125 2.375 0 5 C-0.66 5.66 -1.32 6.32 -2 7 C-4.625 6.625 -4.625 6.625 -7 6 C-7 4.68 -7 3.36 -7 2 C-4.35261084 0.5393715 -3.10551666 0 0 0 Z " fill="#1D509E" transform="translate(187,254)"/>
<path d="M0 0 C0.33 0.99 0.66 1.98 1 3 C3.01508358 3.73323796 3.01508358 3.73323796 5 4 C3.68 4 2.36 4 1 4 C1 4.66 1 5.32 1 6 C2.98 5.67 4.96 5.34 7 5 C7 5.99 7 6.98 7 8 C1.56559513 9.32841008 1.56559513 9.32841008 -0.9375 7.875 C-2 6 -2 6 -1.75 3.375 C-1 1 -1 1 0 0 Z " fill="#E9F5E9" transform="translate(93,369)"/>
<path d="M0 0 C0.94875 0.04125 1.8975 0.0825 2.875 0.125 C3.535 1.445 4.195 2.765 4.875 4.125 C2.565 4.455 0.255 4.785 -2.125 5.125 C-2.455 4.465 -2.785 3.805 -3.125 3.125 C-3.455 4.775 -3.785 6.425 -4.125 8.125 C-4.455 8.125 -4.785 8.125 -5.125 8.125 C-5.25 5.25 -5.25 5.25 -5.125 2.125 C-3.125 0.125 -3.125 0.125 0 0 Z " fill="#C2E4C0" transform="translate(188.125,366.875)"/>
<path d="M0 0 C-0.33 1.98 -0.66 3.96 -1 6 C-2.65 6.33 -4.3 6.66 -6 7 C-6.66 5.68 -7.32 4.36 -8 3 C-5.48696401 0.48696401 -3.51117809 0 0 0 Z " fill="#14499B" transform="translate(192,305)"/>
<path d="M0 0 C0.33 0.99 0.66 1.98 1 3 C3.01508358 3.73323796 3.01508358 3.73323796 5 4 C3.68 4 2.36 4 1 4 C1 4.66 1 5.32 1 6 C4.465 5.505 4.465 5.505 8 5 C7.67 5.99 7.34 6.98 7 8 C4.125 8.625 4.125 8.625 1 9 C-1 7 -1 7 -1.1875 3.9375 C-1 1 -1 1 0 0 Z " fill="#E5F4E5" transform="translate(220,369)"/>
<path d="M0 0 C1.65 1.65 3.3 3.3 5 5 C4.67 5.33 4.34 5.66 4 6 C4.66 6.66 5.32 7.32 6 8 C4.35 8 2.7 8 1 8 C0.67 8.66 0.34 9.32 0 10 C-1.125 6.6875 -1.125 6.6875 -2 3 C-1.34 2.01 -0.68 1.02 0 0 Z " fill="#2058A3" transform="translate(201,301)"/>
<path d="M0 0 C1.98 0 3.96 0 6 0 C6 1.32 6 2.64 6 4 C2.37 4.66 -1.26 5.32 -5 6 C-4.67 5.01 -4.34 4.02 -4 3 C-2.68 3 -1.36 3 0 3 C0 2.01 0 1.02 0 0 Z " fill="#0B4196" transform="translate(180,247)"/>
<path d="M0 0 C1.98 0 3.96 0 6 0 C6 1.98 6 3.96 6 6 C4.02 6 2.04 6 0 6 C0 4.02 0 2.04 0 0 Z " fill="#E3EAF3" transform="translate(236,234)"/>
<path d="M0 0 C-0.33 0.99 -0.66 1.98 -1 3 C-3.75 3.25 -3.75 3.25 -7 3 C-9.375 1 -9.375 1 -11 -1 C-6.70700357 -2.26264601 -4.12168689 -1.62950412 0 0 Z " fill="#1B4F9E" transform="translate(211,258)"/>
<path d="M0 0 C2 1 2 1 2.8125 2.9375 C4.39241741 5.68156708 6.0515206 6.06890124 9 7 C5.98968256 7.93423645 5.13349732 8.04449911 2 7 C2.66 8.32 3.32 9.64 4 11 C2.68 10.67 1.36 10.34 0 10 C0 6.7 0 3.4 0 0 Z " fill="#2BA226" transform="translate(205,367)"/>
<path d="M0 0 C1.65 0.33 3.3 0.66 5 1 C5 4.3 5 7.6 5 11 C4.34 10.67 3.68 10.34 3 10 C3 9.34 3 8.68 3 8 C0.69 8.33 -1.62 8.66 -4 9 C-4 8.34 -4 7.68 -4 7 C-1.69 7 0.62 7 3 7 C1.60240095 3.45481116 1.60240095 3.45481116 0 0 Z " fill="#2AA225" transform="translate(190,366)"/>
<path d="M0 0 C0.598125 0.165 1.19625 0.33 1.8125 0.5 C4.11344336 1.1114124 4.11344336 1.1114124 7 1 C6.34 1.66 5.68 2.32 5 3 C4.59952556 5.32275177 4.2602896 7.65739357 4 10 C3.4225 9.360625 2.845 8.72125 2.25 8.0625 C0.01937599 6.01776132 -1.07436391 5.41794801 -4 5 C-4 4.34 -4 3.68 -4 3 C-1.03 3.495 -1.03 3.495 2 4 C1.34 2.68 0.68 1.36 0 0 Z " fill="#2EA52A" transform="translate(214,366)"/>
<path d="M0 0 C0.33 0.99 0.66 1.98 1 3 C1.66 3.309375 2.32 3.61875 3 3.9375 C5 5 5 5 5.75 7.125 C5.87375 8.053125 5.87375 8.053125 6 9 C3.22589786 8.61736522 2.23112328 8.28659286 0.4375 6.0625 C-0.036875 5.381875 -0.51125 4.70125 -1 4 C-1.99 3.34 -2.98 2.68 -4 2 C-2.68 1.34 -1.36 0.68 0 0 Z " fill="#E4F3E3" transform="translate(84,369)"/>
<path d="M0 0 C1.9375 0.1875 1.9375 0.1875 4 1 C5.25 3.0625 5.25 3.0625 6 5 C3.36 5 0.72 5 -2 5 C-1.125 1.125 -1.125 1.125 0 0 Z " fill="#124196" transform="translate(248,297)"/>
<path d="M0 0 C0.99 0 1.98 0 3 0 C4.98 3.63 6.96 7.26 9 11 C8.01 11 7.02 11 6 11 C4.39453125 9.1015625 4.39453125 9.1015625 2.8125 6.625 C2.01779297 5.40683594 2.01779297 5.40683594 1.20703125 4.1640625 C0 2 0 2 0 0 Z " fill="#DCE6F0" transform="translate(192,28)"/>
<path d="M0 0 C0.99 0 1.98 0 3 0 C3 3.3 3 6.6 3 10 C1.68 9.34 0.36 8.68 -1 8 C-0.67 5.36 -0.34 2.72 0 0 Z " fill="#EAF6E9" transform="translate(202,367)"/>
<path d="M0 0 C2.0625 0.4375 2.0625 0.4375 4 1 C4.33 2.32 4.66 3.64 5 5 C3.35 5.33 1.7 5.66 0 6 C-0.38218767 4.34385343 -0.71395102 2.67542976 -1 1 C-0.67 0.67 -0.34 0.34 0 0 Z " fill="#E4F3E3" transform="translate(157,367)"/>
<path d="M0 0 C0.99 0 1.98 0 3 0 C3 3.3 3 6.6 3 10 C1.68 9.34 0.36 8.68 -1 8 C-0.67 5.36 -0.34 2.72 0 0 Z " fill="#EAF6E9" transform="translate(122,367)"/>
<path d="M0 0 C1.4540625 0.0309375 1.4540625 0.0309375 2.9375 0.0625 C2.9375 0.7225 2.9375 1.3825 2.9375 2.0625 C1.9475 2.0625 0.9575 2.0625 -0.0625 2.0625 C-0.0625 2.7225 -0.0625 3.3825 -0.0625 4.0625 C0.9275 4.3925 1.9175 4.7225 2.9375 5.0625 C0.6275 5.3925 -1.6825 5.7225 -4.0625 6.0625 C-4.105221 4.39638095 -4.10313832 2.72867115 -4.0625 1.0625 C-3.0625 0.0625 -3.0625 0.0625 0 0 Z " fill="#45AE41" transform="translate(304.0625,368.9375)"/>
<path d="M0 0 C2.475 0.99 2.475 0.99 5 2 C3.68 4.64 2.36 7.28 1 10 C-0.32 9.34 -1.64 8.68 -3 8 C-2.67 7.34 -2.34 6.68 -2 6 C-1.34 6 -0.68 6 0 6 C0 4.02 0 2.04 0 0 Z " fill="#2FA52A" transform="translate(89,364)"/>
<path d="M0 0 C0.99 0 1.98 0 3 0 C3.33 1.65 3.66 3.3 4 5 C2.35 5.33 0.7 5.66 -1 6 C-1.625 4.125 -1.625 4.125 -2 2 C-1.34 1.34 -0.68 0.68 0 0 Z " fill="#EBF6EA" transform="translate(237,367)"/>
<path d="M0 0 C2.375 -0.125 2.375 -0.125 5 0 C7 2 7 2 7 6 C5.02 6 3.04 6 1 6 C2.32 5.67 3.64 5.34 5 5 C4.67 4.34 4.34 3.68 4 3 C2.02 3.33 0.04 3.66 -2 4 C-1.34 2.68 -0.68 1.36 0 0 Z " fill="#F9FCF9" transform="translate(141,367)"/>
<path d="M0 0 C2.625 -0.1875 2.625 -0.1875 5 0 C5.33 1.32 5.66 2.64 6 4 C3.39417629 4.93065133 2.35801776 5.14917407 -0.25 4.0625 C-0.8275 3.711875 -1.405 3.36125 -2 3 C-1.34 2.01 -0.68 1.02 0 0 Z " fill="#2556A2" transform="translate(186,297)"/>
<path d="M0 0 C0.99 0 1.98 0 3 0 C3 0.66 3 1.32 3 2 C3.99 2 4.98 2 6 2 C6 2.66 6 3.32 6 4 C5.01 4 4.02 4 3 4 C3 4.66 3 5.32 3 6 C1.68 5.67 0.36 5.34 -1 5 C-0.67 3.35 -0.34 1.7 0 0 Z " fill="#2EA52A" transform="translate(278,369)"/>
<path d="M0 0 C0.33 0.99 0.66 1.98 1 3 C1.66 3.309375 2.32 3.61875 3 3.9375 C5 5 5 5 5.75 7.125 C5.8325 7.74375 5.915 8.3625 6 9 C3.28071483 8.62492618 2.15781339 8.15781339 0.1875 6.1875 C-1 4 -1 4 -0.6875 1.75 C-0.460625 1.1725 -0.23375 0.595 0 0 Z " fill="#E9F5E8" transform="translate(176,369)"/>
<path d="M0 0 C1.65 0 3.3 0 5 0 C5.309375 1.175625 5.309375 1.175625 5.625 2.375 C6.80676612 5.30916286 6.80676612 5.30916286 10.125 6.3125 C11.07375 6.539375 12.0225 6.76625 13 7 C13 7.33 13 7.66 13 8 C10.3125 8.3125 10.3125 8.3125 7 8 C4.0728873 5.53856432 2.11917214 3.17875822 0 0 Z " fill="#29A224" transform="translate(178,371)"/>
<path d="M0 0 C2.31 0 4.62 0 7 0 C7 0.99 7 1.98 7 3 C3.37 3 -0.26 3 -4 3 C-2.68 2.67 -1.36 2.34 0 2 C0 1.34 0 0.68 0 0 Z " fill="#B9B9B9" transform="translate(188,392)"/>
<path d="M0 0 C1.32 0.33 2.64 0.66 4 1 C4 2.65 4 4.3 4 6 C2.68 6 1.36 6 0 6 C0 4.02 0 2.04 0 0 Z " fill="#30A62C" transform="translate(106,369)"/>
<path d="M0 0 C2.375 -0.125 2.375 -0.125 5 0 C7 2 7 2 7 5 C6.34 5 5.68 5 5 5 C4.67 4.34 4.34 3.68 4 3 C2.02 3.33 0.04 3.66 -2 4 C-1.34 2.68 -0.68 1.36 0 0 Z " fill="#F8FBF8" transform="translate(316,367)"/>
<path d="M0 0 C2.375 -0.125 2.375 -0.125 5 0 C7 2 7 2 7 5 C6.34 5 5.68 5 5 5 C4.67 4.34 4.34 3.68 4 3 C2.02 3.33 0.04 3.66 -2 4 C-1.34 2.68 -0.68 1.36 0 0 Z " fill="#F9FCF9" transform="translate(265,367)"/>
<path d="M0 0 C1.65 0 3.3 0 5 0 C5 0.99 5 1.98 5 3 C3.35 3.33 1.7 3.66 0 4 C0 2.68 0 1.36 0 0 Z " fill="#1C4D9C" transform="translate(204,246)"/>
<path d="M0 0 C2.31 0 4.62 0 7 0 C7.33 1.65 7.66 3.3 8 5 C7.67 4.01 7.34 3.02 7 2 C5.68 2 4.36 2 3 2 C2.67 2.99 2.34 3.98 2 5 C0 1.125 0 1.125 0 0 Z " fill="#58B753" transform="translate(131,369)"/>
<path d="M0 0 C0.33 0 0.66 0 1 0 C0.67 4.29 0.34 8.58 0 13 C-0.33 13 -0.66 13 -1 13 C-1.2236337 11.58566794 -1.42826476 10.16832382 -1.625 8.75 C-1.74101562 7.96109375 -1.85703125 7.1721875 -1.9765625 6.359375 C-2.00319395 3.67847541 -1.36592084 2.27305911 0 0 Z " fill="#054095" transform="translate(221,133)"/>
<path d="M0 0 C2.97 0.495 2.97 0.495 6 1 C6.33 1.99 6.66 2.98 7 4 C5.35 4 3.7 4 2 4 C1.34 2.68 0.68 1.36 0 0 Z " fill="#CFEACD" transform="translate(207,374)"/>
<path d="M0 0 C-0.66 1.32 -1.32 2.64 -2 4 C-3.65 4 -5.3 4 -7 4 C-6.67 3.01 -6.34 2.02 -6 1 C-3 0 -3 0 0 0 Z " fill="#BEE3BC" transform="translate(193,374)"/>
<path d="M0 0 C-0.66 1.32 -1.32 2.64 -2 4 C-3.65 4 -5.3 4 -7 4 C-6.67 3.01 -6.34 2.02 -6 1 C-3 0 -3 0 0 0 Z " fill="#CEEACC" transform="translate(284,374)"/>
<path d="M0 0 C1.98 0 3.96 0 6 0 C5.67 0.99 5.34 1.98 5 3 C3.35 3 1.7 3 0 3 C0 2.01 0 1.02 0 0 Z " fill="#2DA428" transform="translate(172,366)"/>
<path d="M0 0 C1.98 0 3.96 0 6 0 C5.67 0.99 5.34 1.98 5 3 C3.35 3 1.7 3 0 3 C0 2.01 0 1.02 0 0 Z " fill="#2FA42A" transform="translate(80,366)"/>
<path d="M0 0 C0.928125 0.20625 1.85625 0.4125 2.8125 0.625 C1.8225 1.12 1.8225 1.12 0.8125 1.625 C0.4825 2.615 0.1525 3.605 -0.1875 4.625 C-0.5175 3.965 -0.8475 3.305 -1.1875 2.625 C-3.71483235 1.96944881 -3.71483235 1.96944881 -6.1875 1.625 C-3.1875 -0.375 -3.1875 -0.375 0 0 Z " fill="#0C4196" transform="translate(208.1875,306.375)"/>
</svg>
